<?xml version="1.0"?>
<svg xmlns="http://www.w3.org/2000/svg" height="512px" viewBox="-21 -43 682.66669 682" width="512px"><g><path d="m576.335938 514.609375-17.195313-7.476563 7.476563-17.191406 17.195312 7.472656zm-28.660157-12.457031-17.191406-7.472656 7.46875-17.195313 17.199219 7.472656zm0 0" data-original="#000000" class="active-path" data-old_color="#000000" fill="#3E4348"/><path d="m467.539062 104.5625c0-28.199219-22.9375-51.132812-51.132812-51.132812s-51.132812 22.9375-51.132812 51.132812c0 28.191406 22.9375 51.132812 51.132812 51.132812s51.132812-22.941406 51.132812-51.132812zm-83.515624 0c0-17.859375 14.527343-32.382812 32.382812-32.382812s32.382812 14.523437 32.382812 32.382812c0 17.855469-14.527343 32.382812-32.382812 32.382812s-32.382812-14.527343-32.382812-32.382812zm0 0" data-original="#000000" class="active-path" data-old_color="#000000" fill="#3E4348"/><path d="m412.992188 311.671875 3.414062 5.039063 7.765625-11.457032c3.996094-5.90625 97.960937-145.238281 97.960937-200.691406 0-58.300781-47.429687-105.730469-105.726562-105.730469s-105.726562 47.429688-105.726562 105.730469c0 47.839844 69.929687 158.105469 91.703124 191.269531l-73.007812 31.449219v-131.851562l-139.078125-60.449219-7.46875 17.199219 127.796875 55.546874v119.503907l-54.976562-23.894531-22.679688 14.871093v52.226563l-5.742188 3.765625-53.164062-23.105469v-231.316406l-174.0625 75.648437v399.28125l174.0625-75.648437v-147.519532l54.976562 23.894532 22.679688-14.871094v-52.226562l5.742188-3.765626 53.164062 23.105469v218.4375l-120.328125-52.292969-7.46875 17.195313 146.546875 63.691406v-247.007812zm3.414062-294.089844c47.960938 0 86.976562 39.019531 86.976562 86.980469 0 37.679688-57 132.644531-86.976562 178.496094-29.976562-45.851563-86.976562-140.816406-86.976562-178.496094 0-47.960938 39.015624-86.980469 86.976562-86.980469zm-397.65625 548.53125v-358.394531l136.5625-59.347656v202.722656l-57.847656 25.140625c-6.5625-10.332031-18.09375-17.207031-31.214844-17.207031-20.382812 0-36.960938 16.582031-36.960938 36.964844 0 20.378906 16.578126 36.96875 36.960938 36.96875 20.996094 0 37.933594-17.59375 36.917969-38.757813l52.144531-22.664063v135.222657zm65.710938-170.121093c0 10.042968-8.167969 18.21875-18.210938 18.21875s-18.210938-8.175782-18.210938-18.21875c0-10.039063 8.167969-18.214844 18.210938-18.214844s18.210938 8.175781 18.210938 18.214844zm0 0" data-original="#000000" class="active-path" data-old_color="#000000" fill="#3E4348"/><path d="m465.9375 506.761719-127.796875 55.542969 7.46875 17.199218 139.078125-60.445312v-272.375h-18.75zm0 0" data-original="#000000" class="active-path" data-old_color="#000000" fill="#3E4348"/><path d="m526.289062 146.007812-7.476562 17.191407 102.4375 44.527343v358.386719l-120.328125-52.292969-7.46875 17.191407 146.546875 63.695312v-399.277343zm0 0" data-original="#000000" class="active-path" data-old_color="#000000" fill="#3E4348"/></g> </svg>
