<?xml version="1.0" encoding="iso-8859-1"?>
<!-- Generator: Adobe Illustrator 19.0.0, SVG Export Plug-In . SVG Version: 6.00 Build 0)  -->
<svg fill="#ffffff" version="1.1" id="Capa_1" xmlns="http://www.w3.org/2000/svg" xmlns:xlink="http://www.w3.org/1999/xlink" x="0px" y="0px"
	 viewBox="0 0 512 512" style="enable-background:new 0 0 512 512;" xml:space="preserve">
<g>
	<g>
		<path d="M123.466,347.901H40.633c-4.143,0-7.5,3.358-7.5,7.5v82.833c0,4.142,3.357,7.5,7.5,7.5h82.833c4.143,0,7.5-3.358,7.5-7.5
			v-82.833C130.966,351.259,127.609,347.901,123.466,347.901z M115.966,430.734H48.133v-67.833h67.833V430.734z"/>
	</g>
</g>
<g>
	<g>
		<path d="M98.617,372.75H65.482c-4.143,0-7.5,3.358-7.5,7.5v33.135c0,4.142,3.358,7.5,7.5,7.5h33.135c4.143,0,7.5-3.358,7.5-7.5
			V380.25C106.117,376.108,102.76,372.75,98.617,372.75z M91.117,405.885H72.982V387.75h18.135V405.885z"/>
	</g>
</g>
<g>
	<g>
		<path d="M206.299,364.467H156.6c-4.143,0-7.5,3.358-7.5,7.5c0,4.142,3.357,7.5,7.5,7.5h49.699c4.143,0,7.5-3.358,7.5-7.5
			C213.799,367.825,210.441,364.467,206.299,364.467z"/>
	</g>
</g>
<g>
	<g>
		<path d="M206.299,397.602h-49.697c-4.143,0-7.5,3.358-7.5,7.5c0,4.142,3.357,7.5,7.5,7.5h49.697c4.143,0,7.5-3.358,7.5-7.5
			C213.799,400.96,210.441,397.602,206.299,397.602z"/>
	</g>
</g>
<g>
	<g>
		<path d="M256,397.602h-24.85c-4.143,0-7.5,3.358-7.5,7.5c0,4.142,3.357,7.5,7.5,7.5H256c4.143,0,7.5-3.358,7.5-7.5
			C263.5,400.96,260.143,397.602,256,397.602z"/>
	</g>
</g>
<g>
	<g>
		<path d="M320.754,141.548l-23.429-23.429c-2.93-2.929-7.678-2.929-10.607,0l-6.65,6.651V73.769c0-4.142-3.357-7.5-7.5-7.5h-33.134
			c-4.143,0-7.5,3.358-7.5,7.5v51.001l-6.237-6.238c-1.407-1.407-3.314-2.197-5.304-2.197c-1.989,0-3.896,0.79-5.304,2.197
			l-23.429,23.429c-2.929,2.929-2.929,7.678,0,10.606l59.036,59.038c1.407,1.407,3.314,2.197,5.304,2.197
			c1.989,0,3.897-0.79,5.304-2.197l59.45-59.451C323.683,149.225,323.683,144.476,320.754,141.548z M256,195.695l-48.43-48.43
			l12.823-12.822l13.737,13.738c2.146,2.145,5.37,2.787,8.174,1.626c2.803-1.161,4.63-3.895,4.63-6.929V81.269h18.134v61.607
			c0,3.034,1.827,5.768,4.63,6.929c2.802,1.162,6.028,0.52,8.174-1.626l14.15-14.151l12.822,12.822L256,195.695z"/>
	</g>
</g>
<g>
	<g>
		<path d="M503.766,138.496c-0.142-0.134-0.289-0.26-0.439-0.381c-0.079-0.066-0.159-0.13-0.239-0.195
			c-0.006-0.004-0.011-0.009-0.017-0.013c-4.138-3.358-9.406-5.376-15.139-5.376h-125.3c-3.865-55.456-50.21-99.395-106.631-99.395
			c-56.421,0-102.766,43.94-106.631,99.395H24.067c-5.729,0-10.993,2.015-15.13,5.369c-0.022,0.016-0.043,0.035-0.066,0.051
			c-0.057,0.047-0.114,0.093-0.171,0.14c-0.165,0.132-0.325,0.269-0.48,0.416C3.187,142.922,0,149.393,0,156.599v298.199
			c0,13.271,10.797,24.067,24.067,24.067h367.234c4.143,0,7.5-3.358,7.5-7.5c0-4.142-3.357-7.5-7.5-7.5H24.067
			c-5,0-9.067-4.067-9.067-9.067V156.599c0-0.682,0.082-1.343,0.225-1.982l236.333,173.691c1.321,0.971,2.881,1.457,4.441,1.457
			s3.12-0.485,4.441-1.457l236.333-173.693c0.143,0.639,0.225,1.301,0.225,1.984v298.199c0,4.999-4.067,9.067-9.067,9.067H421.25
			c-4.143,0-7.5,3.358-7.5,7.5c0,4.142,3.357,7.5,7.5,7.5h66.683c13.271,0,24.067-10.796,24.067-24.067V156.599
			C512,149.387,508.807,142.911,503.766,138.496z M256.001,48.137c50.667,0,91.888,41.216,91.898,91.88
			c0,0.005-0.001,0.01-0.001,0.015s0.001,0.011,0.001,0.016c-0.007,50.667-41.229,91.886-91.898,91.886
			c-50.673,0-91.899-41.226-91.899-91.898C164.102,89.362,205.328,48.137,256.001,48.137z M256,312.957L30.914,147.531H149.37
			c3.861,55.459,50.208,99.402,106.632,99.402s102.771-43.943,106.632-99.402h118.452L256,312.957z"/>
	</g>
</g>
<g>
</g>
<g>
</g>
<g>
</g>
<g>
</g>
<g>
</g>
<g>
</g>
<g>
</g>
<g>
</g>
<g>
</g>
<g>
</g>
<g>
</g>
<g>
</g>
<g>
</g>
<g>
</g>
<g>
</g>
</svg>
